# xmcd CD database file
#
# Track frame offsets:
#	150
#	19562
#	38400
#	58507
#	87692
#	118375
#	140250
#	170070
#	190120
#	215042
#	228255
#
# Disc length: 3235 seconds
#
# Revision: 0
# Processed by: cddbd v1.4PL0 Copyright (c) Steve Scherf et al.
# Submitted via: NeoAudio 9.9.9
#
DISCID=970ca10b
DTITLE=Greg Finnegan - Songs in a Misty Night
DYEAR=1996
DGENRE=Jazz
TTITLE0=Do you know what it means to miss New Orleans
TTITLE1=A Certain Smile
TTITLE2=You'd be so nive to come home to
TTITLE3=When Sunny gets Blue
TTITLE4=You don't know what love is
TTITLE5=What is this thing called love
TTITLE6=Until Tomorrow
TTITLE7=Come rain or shine
TTITLE8=Good marning heartache
TTITLE9=Bye Bye Blackbird
TTITLE10=We're all alone
EXTD=YEAR: 1996
EXTT0=
EXTT1=
EXTT2=
EXTT3=
EXTT4=
EXTT5=
EXTT6=
EXTT7=
EXTT8=
EXTT9=
EXTT10=
PLAYORDER=
